<svg width="201" height="25" viewBox="0 0 201 25" fill="none" xmlns="http://www.w3.org/2000/svg">
<path d="M27.608 1.344V1.984C26.9253 2.00533 26.4133 2.09067 26.072 2.24C25.7307 2.368 25.496 2.624 25.368 3.008C25.2613 3.37067 25.208 3.94666 25.208 4.736V20.608C25.208 21.376 25.2613 21.952 25.368 22.336C25.496 22.72 25.7307 22.976 26.072 23.104C26.4133 23.232 26.9253 23.3173 27.608 23.36V24C27.0107 23.9573 26.2533 23.936 25.336 23.936C24.44 23.9147 23.5227 23.904 22.584 23.904C21.56 23.904 20.6 23.9147 19.704 23.936C18.808 23.936 18.0827 23.9573 17.528 24V23.36C18.2533 23.3173 18.7973 23.232 19.16 23.104C19.544 22.976 19.8 22.72 19.928 22.336C20.056 21.952 20.12 21.376 20.12 20.608V3.296H20.344L12.408 24.032H11.896L3.256 3.424V18.752C3.256 19.9253 3.32 20.832 3.448 21.472C3.576 22.0907 3.85333 22.5387 4.28 22.816C4.728 23.072 5.42133 23.2533 6.36 23.36V24C5.95467 23.9573 5.42133 23.936 4.76 23.936C4.09867 23.9147 3.48 23.904 2.904 23.904C2.41333 23.904 1.912 23.9147 1.4 23.936C0.888 23.936 0.461333 23.9573 0.12 24V23.36C0.802667 23.2533 1.31467 23.072 1.656 22.816C1.99733 22.56 2.22133 22.144 2.328 21.568C2.456 20.9707 2.52 20.16 2.52 19.136V4.736C2.52 3.94666 2.456 3.37067 2.328 3.008C2.22133 2.624 1.98667 2.368 1.624 2.24C1.28267 2.09067 0.781333 2.00533 0.12 1.984V1.344C0.461333 1.36533 0.888 1.38667 1.4 1.408C1.912 1.42933 2.41333 1.44 2.904 1.44C3.82133 1.44 4.71733 1.42933 5.592 1.408C6.488 1.38667 7.27733 1.36533 7.96 1.344L14.68 17.568L13.88 18.304L20.312 1.44C20.6747 1.44 21.048 1.44 21.432 1.44C21.816 1.44 22.2 1.44 22.584 1.44C23.5227 1.44 24.44 1.42933 25.336 1.408C26.2533 1.38667 27.0107 1.36533 27.608 1.344ZM40.4323 1.28L48.2083 21.312C48.5069 22.08 48.8376 22.6133 49.2003 22.912C49.5843 23.1893 49.9256 23.3387 50.2243 23.36V24C49.5843 23.9573 48.8269 23.936 47.9523 23.936C47.0989 23.9147 46.2349 23.904 45.3603 23.904C44.3789 23.904 43.4509 23.9147 42.5763 23.936C41.7016 23.936 41.0083 23.9573 40.4963 24V23.36C41.5843 23.3173 42.2669 23.136 42.5443 22.816C42.8429 22.4747 42.7789 21.76 42.3523 20.672L36.9123 5.792L37.4883 4.96L32.6243 17.632C32.1549 18.8053 31.8669 19.7653 31.7603 20.512C31.6749 21.2587 31.7283 21.8347 31.9203 22.24C32.1336 22.6453 32.4643 22.9333 32.9123 23.104C33.3816 23.2533 33.9363 23.3387 34.5763 23.36V24C33.8723 23.9573 33.2003 23.936 32.5603 23.936C31.9203 23.9147 31.2696 23.904 30.6083 23.904C30.1389 23.904 29.6909 23.9147 29.2643 23.936C28.8589 23.936 28.4962 23.9573 28.1762 24V23.36C28.6242 23.2747 29.0829 22.9867 29.5523 22.496C30.0216 22.0053 30.4803 21.1733 30.9283 20L38.2243 1.28C38.5656 1.30133 38.9283 1.312 39.3123 1.312C39.7176 1.312 40.0909 1.30133 40.4323 1.28ZM42.6723 14.784V15.424H33.1363L33.4563 14.784H42.6723ZM60.351 1.344C64.5537 1.344 67.679 2.304 69.727 4.224C71.775 6.12267 72.799 8.85333 72.799 12.416C72.799 14.7413 72.2977 16.7787 71.295 18.528C70.2923 20.256 68.831 21.6 66.911 22.56C65.0123 23.52 62.7297 24 60.063 24C59.7217 24 59.2737 23.9893 58.719 23.968C58.1643 23.9467 57.5883 23.936 56.991 23.936C56.3937 23.9147 55.8603 23.904 55.391 23.904C54.4523 23.904 53.5243 23.9147 52.607 23.936C51.711 23.936 50.9963 23.9573 50.463 24V23.36C51.1457 23.3173 51.6577 23.232 51.999 23.104C52.3403 22.976 52.5643 22.72 52.671 22.336C52.799 21.952 52.863 21.376 52.863 20.608V4.736C52.863 3.94666 52.799 3.37067 52.671 3.008C52.5643 2.624 52.3297 2.368 51.967 2.24C51.6257 2.09067 51.1243 2.00533 50.463 1.984V1.344C50.9963 1.36533 51.711 1.39733 52.607 1.44C53.5243 1.46133 54.431 1.46133 55.327 1.44C56.095 1.41867 56.959 1.39733 57.919 1.376C58.9003 1.35467 59.711 1.344 60.351 1.344ZM60.319 1.92C59.3377 1.92 58.6977 2.10133 58.399 2.464C58.1003 2.82667 57.951 3.56267 57.951 4.672V20.672C57.951 21.7813 58.1003 22.5173 58.399 22.88C58.719 23.2427 59.3697 23.424 60.351 23.424C62.143 23.424 63.551 23.008 64.575 22.176C65.6203 21.3227 66.367 20.0853 66.815 18.464C67.263 16.8427 67.487 14.8693 67.487 12.544C67.487 10.1547 67.2417 8.18133 66.751 6.624C66.2817 5.04533 65.5243 3.872 64.479 3.104C63.4337 2.31466 62.047 1.92 60.319 1.92ZM92.1455 1.344C92.0602 2.28267 91.9962 3.18933 91.9535 4.064C91.9322 4.93867 91.9215 5.61067 91.9215 6.08C91.9215 6.50667 91.9322 6.912 91.9535 7.296C91.9748 7.68 91.9962 8 92.0175 8.256H91.2815C91.0682 6.69867 90.7375 5.472 90.2895 4.576C89.8415 3.65867 89.2548 3.01867 88.5295 2.656C87.8255 2.272 86.9935 2.08 86.0335 2.08H84.7215C84.1028 2.08 83.6335 2.13333 83.3135 2.24C82.9935 2.34667 82.7802 2.56 82.6735 2.88C82.5668 3.2 82.5135 3.69067 82.5135 4.352V20.992C82.5135 21.6533 82.5668 22.144 82.6735 22.464C82.7802 22.784 82.9935 22.9973 83.3135 23.104C83.6335 23.2107 84.1028 23.264 84.7215 23.264H86.2895C87.2495 23.264 88.0922 23.0613 88.8175 22.656C89.5642 22.2293 90.1935 21.5147 90.7055 20.512C91.2388 19.5093 91.6442 18.1547 91.9215 16.448H92.6575C92.5935 17.1307 92.5615 18.0267 92.5615 19.136C92.5615 19.6267 92.5722 20.32 92.5935 21.216C92.6148 22.112 92.6788 23.04 92.7855 24C91.6975 23.9573 90.4708 23.936 89.1055 23.936C87.7402 23.9147 86.5242 23.904 85.4575 23.904C84.9242 23.904 84.2415 23.904 83.4095 23.904C82.5775 23.904 81.6815 23.9147 80.7215 23.936C79.7615 23.936 78.7908 23.9467 77.8095 23.968C76.8282 23.968 75.9002 23.9787 75.0255 24V23.36C75.7082 23.3173 76.2202 23.232 76.5615 23.104C76.9028 22.976 77.1268 22.72 77.2335 22.336C77.3615 21.952 77.4255 21.376 77.4255 20.608V4.736C77.4255 3.94666 77.3615 3.37067 77.2335 3.008C77.1268 2.624 76.8922 2.368 76.5295 2.24C76.1882 2.09067 75.6868 2.00533 75.0255 1.984V1.344C75.9002 1.36533 76.8282 1.38667 77.8095 1.408C78.7908 1.408 79.7615 1.41867 80.7215 1.44C81.6815 1.44 82.5775 1.44 83.4095 1.44C84.2415 1.44 84.9242 1.44 85.4575 1.44C86.4388 1.44 87.5482 1.44 88.7855 1.44C90.0442 1.41867 91.1642 1.38667 92.1455 1.344ZM87.1535 12.288C87.1535 12.288 87.1535 12.3947 87.1535 12.608C87.1535 12.8213 87.1535 12.928 87.1535 12.928H81.5535C81.5535 12.928 81.5535 12.8213 81.5535 12.608C81.5535 12.3947 81.5535 12.288 81.5535 12.288H87.1535ZM88.0815 8.064C87.9962 9.28 87.9535 10.208 87.9535 10.848C87.9748 11.488 87.9855 12.0747 87.9855 12.608C87.9855 13.1413 87.9962 13.728 88.0175 14.368C88.0388 15.008 88.0922 15.936 88.1775 17.152H87.4415C87.3348 16.4053 87.1322 15.712 86.8335 15.072C86.5562 14.432 86.1508 13.92 85.6175 13.536C85.0842 13.1307 84.3908 12.928 83.5375 12.928V12.288C84.1775 12.288 84.7215 12.16 85.1695 11.904C85.6175 11.6267 85.9802 11.2747 86.2575 10.848C86.5562 10.4 86.7908 9.93067 86.9615 9.44C87.1322 8.94933 87.2602 8.49067 87.3455 8.064H88.0815ZM103.307 0.927999C104.565 0.927999 105.536 1.06667 106.219 1.344C106.901 1.6 107.488 1.87733 107.979 2.176C108.235 2.32533 108.437 2.44267 108.587 2.528C108.757 2.592 108.917 2.624 109.067 2.624C109.28 2.624 109.429 2.50667 109.515 2.272C109.621 2.03733 109.707 1.68533 109.771 1.216H110.507C110.485 1.62133 110.453 2.112 110.411 2.688C110.389 3.24267 110.368 3.97867 110.347 4.896C110.347 5.81333 110.347 7.01867 110.347 8.512H109.611C109.525 7.40267 109.269 6.32533 108.843 5.28C108.416 4.23467 107.808 3.38133 107.019 2.72C106.251 2.03733 105.301 1.696 104.171 1.696C103.147 1.696 102.304 1.984 101.643 2.56C100.981 3.136 100.651 3.936 100.651 4.96C100.651 5.81333 100.864 6.54933 101.291 7.168C101.717 7.76533 102.336 8.352 103.147 8.928C103.979 9.504 104.981 10.1973 106.155 11.008C107.179 11.6693 108.096 12.3307 108.907 12.992C109.717 13.6533 110.368 14.4 110.859 15.232C111.349 16.064 111.595 17.056 111.595 18.208C111.595 19.616 111.221 20.7787 110.475 21.696C109.749 22.6133 108.789 23.3067 107.595 23.776C106.4 24.224 105.088 24.448 103.659 24.448C102.336 24.448 101.28 24.32 100.491 24.064C99.7014 23.808 99.0401 23.5413 98.5068 23.264C98.0374 22.9653 97.6748 22.816 97.4188 22.816C97.2054 22.816 97.0454 22.9333 96.9388 23.168C96.8534 23.4027 96.7788 23.7547 96.7148 24.224H95.9788C96.0214 23.712 96.0428 23.1147 96.0428 22.432C96.0641 21.7493 96.0748 20.864 96.0748 19.776C96.0961 18.6667 96.1068 17.2693 96.1068 15.584H96.8428C96.9281 16.992 97.1628 18.3147 97.5468 19.552C97.9521 20.768 98.5601 21.7493 99.3708 22.496C100.203 23.2427 101.301 23.616 102.667 23.616C103.413 23.616 104.075 23.488 104.651 23.232C105.248 22.9547 105.728 22.5493 106.091 22.016C106.453 21.4827 106.635 20.8213 106.635 20.032C106.635 19.136 106.421 18.3573 105.995 17.696C105.589 17.0347 105.024 16.416 104.299 15.84C103.595 15.264 102.773 14.6773 101.835 14.08C100.832 13.4187 99.8934 12.7573 99.0188 12.096C98.1441 11.4347 97.4401 10.6773 96.9068 9.824C96.3948 8.97067 96.1388 7.95733 96.1388 6.784C96.1388 5.44 96.4694 4.34133 97.1308 3.488C97.8134 2.61333 98.6988 1.97333 99.7868 1.568C100.896 1.14133 102.069 0.927999 103.307 0.927999ZM127.562 24V23.36C128.245 23.3173 128.757 23.232 129.098 23.104C129.44 22.976 129.664 22.72 129.77 22.336C129.898 21.952 129.962 21.376 129.962 20.608V4.736C129.962 3.94666 129.898 3.37067 129.77 3.008C129.664 2.624 129.429 2.368 129.066 2.24C128.725 2.09067 128.224 2.00533 127.562 1.984V1.344C128.138 1.36533 128.885 1.38667 129.802 1.408C130.741 1.42933 131.669 1.44 132.586 1.44C133.568 1.44 134.485 1.42933 135.338 1.408C136.213 1.38667 136.917 1.36533 137.45 1.344V1.984C136.768 2.00533 136.245 2.09067 135.882 2.24C135.541 2.368 135.317 2.624 135.21 3.008C135.104 3.37067 135.05 3.94666 135.05 4.736V20.608C135.05 21.376 135.104 21.952 135.21 22.336C135.338 22.72 135.573 22.976 135.914 23.104C136.256 23.232 136.768 23.3173 137.45 23.36V24C136.917 23.9573 136.213 23.936 135.338 23.936C134.485 23.9147 133.568 23.904 132.586 23.904C131.669 23.904 130.741 23.9147 129.802 23.936C128.885 23.936 128.138 23.9573 127.562 24ZM113.994 24V23.36C114.677 23.3173 115.189 23.232 115.53 23.104C115.872 22.976 116.096 22.72 116.202 22.336C116.33 21.952 116.394 21.376 116.394 20.608V4.736C116.394 3.94666 116.33 3.37067 116.202 3.008C116.096 2.624 115.861 2.368 115.498 2.24C115.157 2.09067 114.656 2.00533 113.994 1.984V1.344C114.549 1.36533 115.264 1.38667 116.138 1.408C117.034 1.42933 118.005 1.44 119.05 1.44C119.946 1.44 120.832 1.42933 121.706 1.408C122.581 1.38667 123.306 1.36533 123.882 1.344V1.984C123.2 2.00533 122.677 2.09067 122.314 2.24C121.973 2.368 121.749 2.624 121.642 3.008C121.536 3.37067 121.482 3.94666 121.482 4.736V20.608C121.482 21.376 121.536 21.952 121.642 22.336C121.77 22.72 122.005 22.976 122.346 23.104C122.688 23.232 123.2 23.3173 123.882 23.36V24C123.306 23.9573 122.581 23.936 121.706 23.936C120.832 23.9147 119.946 23.904 119.05 23.904C118.005 23.904 117.034 23.9147 116.138 23.936C115.264 23.936 114.549 23.9573 113.994 24ZM119.402 12.928V12.288H132.042V12.928H119.402ZM160.548 1.344V1.952C159.865 2.10133 159.129 2.4 158.34 2.848C157.572 3.296 156.761 4.02133 155.908 5.024L149.892 12.192L151.748 9.536L159.364 21.408C159.663 21.8987 159.983 22.2933 160.324 22.592C160.665 22.8907 161.113 23.1467 161.668 23.36V24C160.921 23.9573 160.089 23.936 159.172 23.936C158.255 23.9147 157.423 23.904 156.676 23.904C156.228 23.904 155.684 23.9147 155.044 23.936C154.404 23.936 153.593 23.9573 152.612 24V23.36C153.487 23.3173 154.009 23.2 154.18 23.008C154.372 22.7947 154.297 22.432 153.956 21.92L149.316 14.4C149.017 13.9093 148.751 13.5467 148.516 13.312C148.281 13.056 148.047 12.8853 147.812 12.8C147.577 12.6933 147.268 12.6293 146.884 12.608V11.936C147.823 11.9147 148.655 11.6587 149.38 11.168C150.127 10.6773 150.937 9.93067 151.812 8.928L153.7 6.656C154.511 5.696 154.98 4.87467 155.108 4.192C155.257 3.488 155.119 2.944 154.692 2.56C154.287 2.176 153.657 1.97333 152.804 1.952V1.344C153.337 1.36533 153.839 1.38667 154.308 1.408C154.799 1.408 155.3 1.41867 155.812 1.44C156.345 1.44 156.921 1.44 157.54 1.44C158.159 1.44 158.713 1.42933 159.204 1.408C159.716 1.38667 160.164 1.36533 160.548 1.344ZM149.476 1.344V1.984C148.793 2.00533 148.271 2.09067 147.908 2.24C147.567 2.368 147.343 2.624 147.236 3.008C147.129 3.37067 147.076 3.94666 147.076 4.736V20.608C147.076 21.376 147.129 21.952 147.236 22.336C147.364 22.72 147.599 22.976 147.94 23.104C148.281 23.232 148.793 23.3173 149.476 23.36V24C148.9 23.9573 148.175 23.936 147.3 23.936C146.425 23.9147 145.54 23.904 144.644 23.904C143.62 23.904 142.649 23.9147 141.732 23.936C140.836 23.936 140.121 23.9573 139.588 24V23.36C140.271 23.3173 140.783 23.232 141.124 23.104C141.465 22.976 141.689 22.72 141.796 22.336C141.924 21.952 141.988 21.376 141.988 20.608V4.736C141.988 3.94666 141.924 3.37067 141.796 3.008C141.689 2.624 141.455 2.368 141.092 2.24C140.751 2.09067 140.249 2.00533 139.588 1.984V1.344C140.121 1.36533 140.836 1.38667 141.732 1.408C142.649 1.42933 143.62 1.44 144.644 1.44C145.54 1.44 146.425 1.42933 147.3 1.408C148.175 1.38667 148.9 1.36533 149.476 1.344ZM173.12 1.28L180.896 21.312C181.194 22.08 181.525 22.6133 181.888 22.912C182.272 23.1893 182.613 23.3387 182.912 23.36V24C182.272 23.9573 181.514 23.936 180.64 23.936C179.786 23.9147 178.922 23.904 178.048 23.904C177.066 23.904 176.138 23.9147 175.264 23.936C174.389 23.936 173.696 23.9573 173.184 24V23.36C174.272 23.3173 174.954 23.136 175.232 22.816C175.53 22.4747 175.466 21.76 175.04 20.672L169.6 5.792L170.176 4.96L165.312 17.632C164.842 18.8053 164.554 19.7653 164.448 20.512C164.362 21.2587 164.416 21.8347 164.608 22.24C164.821 22.6453 165.152 22.9333 165.6 23.104C166.069 23.2533 166.624 23.3387 167.264 23.36V24C166.56 23.9573 165.888 23.936 165.248 23.936C164.608 23.9147 163.957 23.904 163.296 23.904C162.826 23.904 162.378 23.9147 161.952 23.936C161.546 23.936 161.184 23.9573 160.864 24V23.36C161.312 23.2747 161.77 22.9867 162.24 22.496C162.709 22.0053 163.168 21.1733 163.616 20L170.912 1.28C171.253 1.30133 171.616 1.312 172 1.312C172.405 1.312 172.778 1.30133 173.12 1.28ZM175.36 14.784V15.424H165.824L166.144 14.784H175.36ZM200.271 1.344C200.185 2.304 200.121 3.232 200.079 4.128C200.057 5.024 200.047 5.71733 200.047 6.208C200.047 6.67733 200.057 7.12533 200.079 7.552C200.1 7.97867 200.121 8.34133 200.142 8.64H199.407C199.129 6.976 198.745 5.67467 198.255 4.736C197.764 3.776 197.156 3.09333 196.431 2.688C195.727 2.28267 194.884 2.08 193.903 2.08H192.847C192.228 2.08 191.759 2.13333 191.439 2.24C191.119 2.34667 190.905 2.56 190.799 2.88C190.692 3.2 190.639 3.69067 190.639 4.352V20.416C190.639 21.248 190.724 21.8667 190.895 22.272C191.065 22.6773 191.396 22.944 191.887 23.072C192.377 23.2 193.103 23.2747 194.063 23.296V24C193.401 23.9787 192.548 23.9573 191.503 23.936C190.457 23.9147 189.359 23.904 188.207 23.904C187.289 23.904 186.393 23.9147 185.519 23.936C184.644 23.9573 183.855 23.9787 183.151 24V23.36C183.833 23.3173 184.345 23.232 184.687 23.104C185.028 22.976 185.252 22.72 185.359 22.336C185.487 21.952 185.551 21.376 185.551 20.608V4.736C185.551 3.94666 185.487 3.37067 185.359 3.008C185.252 2.624 185.017 2.368 184.655 2.24C184.313 2.09067 183.812 2.00533 183.151 1.984V1.344C184.025 1.36533 184.953 1.38667 185.935 1.408C186.916 1.408 187.887 1.41867 188.847 1.44C189.807 1.44 190.703 1.44 191.535 1.44C192.367 1.44 193.049 1.44 193.583 1.44C194.564 1.44 195.673 1.44 196.911 1.44C198.169 1.41867 199.289 1.38667 200.271 1.344ZM195.503 12.416C195.503 12.416 195.503 12.5227 195.503 12.736C195.503 12.9493 195.503 13.056 195.503 13.056H189.679C189.679 13.056 189.679 12.9493 189.679 12.736C189.679 12.5227 189.679 12.416 189.679 12.416H195.503ZM196.303 8.192C196.217 9.408 196.175 10.336 196.175 10.976C196.196 11.616 196.207 12.2027 196.207 12.736C196.207 13.2693 196.217 13.856 196.239 14.496C196.26 15.136 196.313 16.064 196.399 17.28H195.663C195.535 16.5333 195.332 15.84 195.055 15.2C194.777 14.56 194.372 14.048 193.839 13.664C193.305 13.2587 192.612 13.056 191.759 13.056V12.416C192.399 12.416 192.932 12.288 193.359 12.032C193.807 11.7547 194.18 11.4027 194.479 10.976C194.777 10.528 195.012 10.0587 195.183 9.568C195.353 9.07733 195.481 8.61867 195.567 8.192H196.303Z" fill="white"/>
</svg>
