<svg width="201" height="25" viewBox="0 0 201 25" fill="none" xmlns="http://www.w3.org/2000/svg">
<path d="M27.608 1.984C26.8827 2.02667 26.36 2.112 26.04 2.24C25.72 2.368 25.496 2.61333 25.368 2.976C25.2613 3.33867 25.208 3.92533 25.208 4.736V20.608C25.208 21.4187 25.2613 22.0053 25.368 22.368C25.496 22.7307 25.72 22.976 26.04 23.104C26.3813 23.232 26.904 23.3173 27.608 23.36V24C26.4347 23.936 24.76 23.904 22.584 23.904C20.3013 23.904 18.616 23.936 17.528 24V23.36C18.296 23.3173 18.8507 23.232 19.192 23.104C19.5547 22.976 19.8 22.7307 19.928 22.368C20.056 22.0053 20.12 21.4187 20.12 20.608V3.872L12.408 24.032H11.896L3.256 3.424V18.752C3.256 20.0107 3.32 20.9387 3.448 21.536C3.576 22.112 3.85333 22.5387 4.28 22.816C4.70667 23.072 5.4 23.2533 6.36 23.36V24C5.528 23.936 4.376 23.904 2.904 23.904C1.73067 23.904 0.802667 23.936 0.12 24V23.36C0.824 23.2533 1.336 23.072 1.656 22.816C1.99733 22.56 2.22133 22.1547 2.328 21.6C2.456 21.0453 2.52 20.224 2.52 19.136V4.736C2.52 3.92533 2.456 3.33867 2.328 2.976C2.22133 2.61333 1.99733 2.368 1.656 2.24C1.336 2.112 0.824 2.02667 0.12 1.984V1.344C0.802667 1.408 1.73067 1.44 2.904 1.44C4.86667 1.44 6.552 1.408 7.96 1.344L14.424 16.928L20.312 1.44H22.584C24.76 1.44 26.4347 1.408 27.608 1.344V1.984ZM48.2083 21.312C48.4856 22.016 48.8056 22.528 49.1683 22.848C49.5309 23.168 49.8829 23.3387 50.2243 23.36V24C48.9443 23.936 47.3229 23.904 45.3603 23.904C43.1843 23.904 41.5629 23.936 40.4963 24V23.36C41.3069 23.3173 41.8829 23.2213 42.2243 23.072C42.5656 22.9013 42.7363 22.6133 42.7363 22.208C42.7363 21.824 42.6083 21.312 42.3523 20.672L40.4323 15.424H33.4563L32.6243 17.632C32.0269 19.168 31.7283 20.352 31.7283 21.184C31.7283 21.9733 31.9629 22.528 32.4323 22.848C32.9229 23.1467 33.6376 23.3173 34.5763 23.36V24C33.1256 23.936 31.8029 23.904 30.6083 23.904C29.6269 23.904 28.8163 23.936 28.1762 24V23.36C29.2216 23.168 30.1389 22.048 30.9283 20L38.2243 1.28C38.4589 1.30133 38.8323 1.312 39.3443 1.312C39.8563 1.312 40.2189 1.30133 40.4323 1.28L48.2083 21.312ZM40.2083 14.784L37.0403 6.144L33.7123 14.784H40.2083ZM60.351 1.344C64.511 1.344 67.6257 2.29333 69.695 4.192C71.7643 6.06933 72.799 8.81067 72.799 12.416C72.799 14.7413 72.287 16.7787 71.263 18.528C70.2603 20.256 68.799 21.6 66.879 22.56C64.9803 23.52 62.7083 24 60.063 24L58.079 23.968C56.8417 23.9253 55.9457 23.904 55.391 23.904C53.1937 23.904 51.551 23.936 50.463 24V23.36C51.167 23.3173 51.679 23.232 51.999 23.104C52.3403 22.976 52.5643 22.7307 52.671 22.368C52.799 22.0053 52.863 21.4187 52.863 20.608V4.736C52.863 3.92533 52.799 3.33867 52.671 2.976C52.5643 2.61333 52.3403 2.368 51.999 2.24C51.679 2.112 51.167 2.02667 50.463 1.984V1.344C51.359 1.408 52.6497 1.44 54.335 1.44H55.327L56.607 1.408C58.3563 1.36533 59.6043 1.344 60.351 1.344ZM60.319 1.92C59.6577 1.92 59.1563 1.99467 58.815 2.144C58.495 2.29333 58.271 2.56 58.143 2.944C58.015 3.328 57.951 3.904 57.951 4.672V20.672C57.951 21.44 58.015 22.016 58.143 22.4C58.271 22.784 58.495 23.0507 58.815 23.2C59.1563 23.3493 59.6683 23.424 60.351 23.424C62.9323 23.424 64.767 22.528 65.855 20.736C66.943 18.9227 67.487 16.192 67.487 12.544C67.487 8.896 66.9217 6.21867 65.791 4.512C64.6817 2.784 62.8577 1.92 60.319 1.92ZM92.5615 19.136C92.5615 21.0987 92.6362 22.72 92.7855 24C91.3348 23.936 88.8922 23.904 85.4575 23.904C80.8068 23.904 77.3295 23.936 75.0255 24V23.36C75.7295 23.3173 76.2415 23.232 76.5615 23.104C76.9028 22.976 77.1268 22.7307 77.2335 22.368C77.3615 22.0053 77.4255 21.4187 77.4255 20.608V4.736C77.4255 3.92533 77.3615 3.33867 77.2335 2.976C77.1268 2.61333 76.9028 2.368 76.5615 2.24C76.2415 2.112 75.7295 2.02667 75.0255 1.984V1.344C77.3295 1.408 80.8068 1.44 85.4575 1.44C88.5935 1.44 90.8228 1.408 92.1455 1.344C91.9962 3.11467 91.9215 4.69333 91.9215 6.08C91.9215 7.01867 91.9535 7.744 92.0175 8.256H91.2815C90.9615 5.97333 90.3855 4.37333 89.5535 3.456C88.7215 2.53867 87.5482 2.08 86.0335 2.08H84.7215C84.0602 2.08 83.5802 2.13333 83.2815 2.24C82.9828 2.34667 82.7802 2.56 82.6735 2.88C82.5668 3.17867 82.5135 3.66933 82.5135 4.352V12.288H83.5375C84.6682 12.288 85.5215 11.872 86.0975 11.04C86.6948 10.208 87.1108 9.216 87.3455 8.064H88.0815C88.0175 8.96 87.9855 9.96267 87.9855 11.072V12.608C87.9855 13.696 88.0495 15.2107 88.1775 17.152H87.4415C86.9935 14.336 85.6922 12.928 83.5375 12.928H82.5135V20.992C82.5135 21.6747 82.5668 22.176 82.6735 22.496C82.7802 22.7947 82.9828 22.9973 83.2815 23.104C83.5802 23.2107 84.0602 23.264 84.7215 23.264H86.2895C87.8042 23.264 89.0202 22.752 89.9375 21.728C90.8762 20.6827 91.5375 18.9227 91.9215 16.448H92.6575C92.5935 17.152 92.5615 18.048 92.5615 19.136ZM103.307 0.927999C104.416 0.927999 105.301 1.03467 105.963 1.248C106.624 1.46133 107.296 1.77067 107.979 2.176C108.213 2.304 108.416 2.41066 108.587 2.496C108.779 2.58133 108.939 2.624 109.067 2.624C109.259 2.624 109.408 2.51733 109.515 2.304C109.621 2.06933 109.707 1.70667 109.771 1.216H110.507C110.4 2.64533 110.347 5.07733 110.347 8.512H109.611C109.525 7.36 109.259 6.26133 108.811 5.216C108.384 4.17067 107.765 3.328 106.955 2.688C106.165 2.02667 105.237 1.696 104.171 1.696C103.125 1.696 102.272 1.99467 101.611 2.592C100.971 3.168 100.651 3.95733 100.651 4.96C100.651 5.70667 100.811 6.35733 101.131 6.912C101.451 7.46667 101.899 7.97867 102.475 8.448C103.051 8.896 103.936 9.51467 105.131 10.304L106.155 11.008C107.413 11.84 108.405 12.5653 109.131 13.184C109.856 13.8027 110.443 14.528 110.891 15.36C111.36 16.1707 111.595 17.12 111.595 18.208C111.595 19.5733 111.243 20.7253 110.539 21.664C109.835 22.5813 108.875 23.2747 107.659 23.744C106.464 24.2133 105.131 24.448 103.659 24.448C102.464 24.448 101.472 24.3413 100.683 24.128C99.8934 23.9147 99.1681 23.6267 98.5068 23.264C98.0374 22.9653 97.6748 22.816 97.4188 22.816C97.2268 22.816 97.0774 22.9333 96.9708 23.168C96.8641 23.3813 96.7788 23.7333 96.7148 24.224H95.9788C96.0641 22.88 96.1068 20 96.1068 15.584H96.8428C96.9921 17.9733 97.5254 19.9147 98.4427 21.408C99.3601 22.88 100.768 23.616 102.667 23.616C103.819 23.616 104.768 23.3067 105.515 22.688C106.261 22.0693 106.635 21.184 106.635 20.032C106.635 18.8373 106.251 17.8133 105.483 16.96C104.715 16.1067 103.499 15.1467 101.835 14.08C100.555 13.248 99.5308 12.5227 98.7628 11.904C97.9948 11.2853 97.3654 10.56 96.8748 9.728C96.3841 8.87467 96.1388 7.89333 96.1388 6.784C96.1388 5.504 96.4588 4.42666 97.0988 3.552C97.7601 2.656 98.6348 1.99467 99.7228 1.568C100.811 1.14133 102.005 0.927999 103.307 0.927999ZM137.45 1.984C136.725 2.02667 136.202 2.112 135.882 2.24C135.562 2.368 135.338 2.61333 135.21 2.976C135.104 3.33867 135.05 3.92533 135.05 4.736V20.608C135.05 21.4187 135.104 22.0053 135.21 22.368C135.338 22.7307 135.562 22.976 135.882 23.104C136.202 23.232 136.725 23.3173 137.45 23.36V24C136.405 23.936 134.784 23.904 132.586 23.904C130.432 23.904 128.757 23.936 127.562 24V23.36C128.266 23.3173 128.778 23.232 129.098 23.104C129.44 22.976 129.664 22.7307 129.77 22.368C129.898 22.0053 129.962 21.4187 129.962 20.608V12.928H121.482V20.608C121.482 21.4187 121.536 22.0053 121.642 22.368C121.77 22.7307 121.994 22.976 122.314 23.104C122.634 23.232 123.157 23.3173 123.882 23.36V24C122.73 23.936 121.12 23.904 119.05 23.904C116.768 23.904 115.082 23.936 113.994 24V23.36C114.698 23.3173 115.21 23.232 115.53 23.104C115.872 22.976 116.096 22.7307 116.202 22.368C116.33 22.0053 116.394 21.4187 116.394 20.608V4.736C116.394 3.92533 116.33 3.33867 116.202 2.976C116.096 2.61333 115.872 2.368 115.53 2.24C115.21 2.112 114.698 2.02667 113.994 1.984V1.344C115.082 1.408 116.768 1.44 119.05 1.44C121.12 1.44 122.73 1.408 123.882 1.344V1.984C123.157 2.02667 122.634 2.112 122.314 2.24C121.994 2.368 121.77 2.61333 121.642 2.976C121.536 3.33867 121.482 3.92533 121.482 4.736V12.288H129.962V4.736C129.962 3.92533 129.898 3.33867 129.77 2.976C129.664 2.61333 129.44 2.368 129.098 2.24C128.778 2.112 128.266 2.02667 127.562 1.984V1.344C128.757 1.408 130.432 1.44 132.586 1.44C134.784 1.44 136.405 1.408 137.45 1.344V1.984ZM159.364 21.408C159.684 21.8987 160.015 22.2933 160.356 22.592C160.697 22.8907 161.135 23.1467 161.668 23.36V24C160.175 23.936 158.511 23.904 156.676 23.904C155.268 23.904 153.913 23.936 152.612 24V23.36C153.209 23.3173 153.636 23.2533 153.892 23.168C154.169 23.0827 154.308 22.9333 154.308 22.72C154.308 22.5493 154.191 22.2827 153.956 21.92L149.316 14.4C148.889 13.7173 148.527 13.2587 148.228 13.024C147.951 12.7893 147.567 12.6507 147.076 12.608V20.608C147.076 21.4187 147.129 22.0053 147.236 22.368C147.364 22.7307 147.588 22.976 147.908 23.104C148.228 23.232 148.751 23.3173 149.476 23.36V24C148.324 23.936 146.713 23.904 144.644 23.904C142.361 23.904 140.676 23.936 139.588 24V23.36C140.292 23.3173 140.804 23.232 141.124 23.104C141.465 22.976 141.689 22.7307 141.796 22.368C141.924 22.0053 141.988 21.4187 141.988 20.608V4.736C141.988 3.92533 141.924 3.33867 141.796 2.976C141.689 2.61333 141.465 2.368 141.124 2.24C140.804 2.112 140.292 2.02667 139.588 1.984V1.344C140.676 1.408 142.361 1.44 144.644 1.44C146.713 1.44 148.324 1.408 149.476 1.344V1.984C148.751 2.02667 148.228 2.112 147.908 2.24C147.588 2.368 147.364 2.61333 147.236 2.976C147.129 3.33867 147.076 3.92533 147.076 4.736V11.936C147.929 11.8933 148.708 11.6373 149.412 11.168C150.116 10.6987 150.916 9.952 151.812 8.928L153.7 6.656C154.681 5.52533 155.172 4.53333 155.172 3.68C155.172 3.168 154.959 2.76267 154.532 2.464C154.127 2.16533 153.551 1.99467 152.804 1.952V1.344C154.361 1.408 155.94 1.44 157.54 1.44C158.777 1.44 159.78 1.408 160.548 1.344V1.952C158.841 2.35733 157.295 3.38133 155.908 5.024L151.908 9.792L159.364 21.408ZM180.896 21.312C181.173 22.016 181.493 22.528 181.856 22.848C182.218 23.168 182.57 23.3387 182.912 23.36V24C181.632 23.936 180.01 23.904 178.048 23.904C175.872 23.904 174.25 23.936 173.184 24V23.36C173.994 23.3173 174.57 23.2213 174.912 23.072C175.253 22.9013 175.424 22.6133 175.424 22.208C175.424 21.824 175.296 21.312 175.04 20.672L173.12 15.424H166.144L165.312 17.632C164.714 19.168 164.416 20.352 164.416 21.184C164.416 21.9733 164.65 22.528 165.12 22.848C165.61 23.1467 166.325 23.3173 167.264 23.36V24C165.813 23.936 164.49 23.904 163.296 23.904C162.314 23.904 161.504 23.936 160.864 24V23.36C161.909 23.168 162.826 22.048 163.616 20L170.912 1.28C171.146 1.30133 171.52 1.312 172.032 1.312C172.544 1.312 172.906 1.30133 173.12 1.28L180.896 21.312ZM172.896 14.784L169.728 6.144L166.4 14.784H172.896ZM200.271 1.344C200.121 3.15733 200.047 4.77867 200.047 6.208C200.047 7.21067 200.079 8.02133 200.142 8.64H199.407C198.98 6.22933 198.34 4.53333 197.487 3.552C196.633 2.57066 195.439 2.08 193.903 2.08H192.847C192.185 2.08 191.705 2.13333 191.407 2.24C191.108 2.34667 190.905 2.56 190.799 2.88C190.692 3.17867 190.639 3.66933 190.639 4.352V12.416H191.759C192.889 12.416 193.743 12 194.319 11.168C194.916 10.336 195.332 9.344 195.567 8.192H196.303C196.239 9.088 196.207 10.0907 196.207 11.2V12.736C196.207 13.824 196.271 15.3387 196.399 17.28H195.663C195.215 14.464 193.913 13.056 191.759 13.056H190.639V20.416C190.639 21.2693 190.724 21.8987 190.895 22.304C191.087 22.688 191.407 22.944 191.855 23.072C192.324 23.2 193.06 23.2747 194.063 23.296V24C191.439 23.936 189.487 23.904 188.207 23.904C187.14 23.904 185.796 23.9253 184.174 23.968L183.151 24V23.36C183.855 23.3173 184.367 23.232 184.687 23.104C185.028 22.976 185.252 22.7307 185.359 22.368C185.487 22.0053 185.551 21.4187 185.551 20.608V4.736C185.551 3.92533 185.487 3.33867 185.359 2.976C185.252 2.61333 185.028 2.368 184.687 2.24C184.367 2.112 183.855 2.02667 183.151 1.984V1.344C185.455 1.408 188.932 1.44 193.583 1.44C196.719 1.44 198.948 1.408 200.271 1.344Z" fill="#C0AD95"/>
</svg>
